<svg version="1.1" id="Layer_1" xmlns="http://www.w3.org/2000/svg" xmlns:xlink="http://www.w3.org/1999/xlink" x="0px" y="0px"
	 width="100%" viewBox="0 0 3595 3595" enable-background="new 0 0 3595 3595" xml:space="preserve">
<path fill="#091D17" opacity="1.000000" stroke="none" 
	d="
M6.000000,2.000000 
	C1203.247437,2.000000 2400.494873,2.000000 3597.871094,2.000000 
	C3597.871094,1200.494751 3597.871094,2398.989502 3597.871094,3598.000000 
	C2401.258301,3598.000000 1204.516357,3598.000000 6.890679,3597.104736 
	C6.004630,2398.139648 6.002315,1200.069824 6.000000,2.000000 
M1930.719604,1134.493286 
	C1926.387573,1134.554688 1922.055420,1134.669067 1917.723389,1134.669678 
	C1843.734497,1134.680664 1769.739624,1134.127197 1695.759399,1134.929932 
	C1662.991943,1135.285522 1633.010498,1127.420410 1605.555786,1110.349976 
	C1587.773315,1099.293457 1570.844971,1086.816040 1553.914917,1074.453369 
	C1543.246704,1066.663330 1531.988037,1060.337769 1519.020508,1057.949829 
	C1508.914673,1056.088745 1498.593018,1054.557617 1488.349365,1054.438721 
	C1452.359497,1054.020752 1416.361572,1054.171753 1380.367798,1054.346924 
	C1371.060547,1054.392212 1361.749634,1055.200195 1352.454102,1055.852783 
	C1305.985962,1059.114502 1264.994995,1101.950684 1257.174683,1136.105957 
	C1254.369873,1148.356079 1252.322021,1161.049316 1252.121094,1173.575562 
	C1251.485474,1213.225708 1251.826050,1252.892578 1251.906982,1292.552856 
	C1251.958374,1317.716797 1259.250977,1340.148193 1275.647339,1359.832520 
	C1291.653564,1379.048706 1305.741455,1399.707153 1316.678711,1422.359985 
	C1327.122925,1443.991333 1332.943726,1466.547485 1332.552734,1490.780151 
	C1332.101318,1518.768677 1331.992920,1546.779541 1332.580444,1574.763062 
	C1333.133667,1601.113770 1326.674805,1625.496704 1314.841431,1648.754150 
	C1303.445190,1671.152466 1288.898071,1691.459351 1273.119995,1710.867065 
	C1259.505127,1727.614136 1252.534424,1746.868164 1252.249756,1767.987427 
	C1251.625488,1814.303345 1251.616699,1860.639282 1252.241455,1906.955078 
	C1252.531250,1928.438721 1259.946411,1947.769775 1273.552979,1964.975830 
	C1285.307129,1979.839355 1296.282471,1995.425415 1306.407349,2011.447021 
	C1324.418091,2039.947266 1332.912720,2070.923584 1332.742188,2105.182373 
	C1332.040649,2246.157959 1332.446411,2387.138672 1332.460327,2528.117676 
	C1332.460693,2531.968018 1332.634644,2535.818359 1332.725708,2539.586914 
	C1396.868408,2539.586914 1459.719360,2539.586914 1523.551514,2539.586914 
	C1523.551514,2535.102783 1523.551514,2531.173584 1523.551514,2527.244385 
	C1523.551636,2377.266846 1523.682251,2227.289062 1523.406616,2077.312012 
	C1523.366821,2055.667969 1528.005737,2035.684082 1539.157104,2017.291260 
	C1556.758301,1988.260132 1580.171021,1964.937622 1609.384155,1947.602173 
	C1626.953979,1937.176025 1646.020508,1932.293091 1666.545776,1932.324707 
	C1758.864990,1932.466919 1851.184814,1932.459839 1943.504028,1932.330078 
	C1963.675903,1932.301758 1982.356689,1937.228394 1999.777222,1947.220093 
	C2023.558105,1960.859863 2043.028442,1979.376099 2059.673584,2000.924683 
	C2077.528809,2024.039551 2086.611816,2049.747803 2086.503174,2079.587646 
	C2085.958740,2228.896729 2086.253906,2378.208496 2086.253906,2527.519531 
	C2086.253906,2531.427490 2086.254150,2535.335205 2086.254150,2539.021240 
	C2099.430420,2541.084473 2269.441650,2540.544922 2277.237061,2538.396240 
	C2277.237061,2534.314941 2277.237061,2530.026367 2277.237061,2525.737793 
	C2277.237061,2384.092285 2277.403564,2242.446533 2277.092529,2100.801514 
	C2277.032471,2073.425537 2283.467285,2048.132568 2296.076660,2024.093140 
	C2307.120117,2003.038696 2320.716797,1983.684204 2335.772461,1965.412720 
	C2350.434570,1947.619019 2357.455322,1927.131836 2357.726807,1904.587646 
	C2358.260254,1860.267944 2358.236816,1815.934082 2357.780273,1771.612915 
	C2357.540527,1748.347900 2350.410400,1727.279907 2335.214844,1708.962524 
	C2320.100098,1690.742432 2306.625244,1671.292114 2295.658691,1650.198608 
	C2283.295654,1626.419189 2276.600342,1601.404907 2277.127686,1574.384644 
	C2277.634766,1548.398438 2277.892334,1522.373779 2277.071045,1496.403687 
	C2276.046143,1463.985718 2284.443604,1434.284180 2301.398926,1407.139526 
	C2312.492432,1389.379395 2324.988281,1372.461914 2337.422852,1355.584595 
	C2345.461670,1344.673340 2352.060547,1333.206909 2354.474121,1319.861084 
	C2356.243652,1310.076416 2357.737793,1300.092896 2357.839844,1290.182373 
	C2358.227783,1252.525269 2358.107666,1214.861450 2357.918213,1177.201294 
	C2357.876465,1168.902588 2356.899902,1160.597534 2356.137207,1152.315308 
	C2351.993408,1107.337036 2309.408447,1066.324219 2272.651611,1058.700928 
	C2260.975586,1056.279175 2248.931641,1054.634888 2237.031250,1054.473511 
	C2198.377441,1053.949219 2159.712158,1054.247925 2121.051270,1054.286255 
	C2094.916504,1054.312256 2071.576416,1061.516724 2050.694336,1078.198608 
	C2034.623901,1091.036987 2017.208618,1102.390869 1999.531128,1112.966675 
	C1979.075928,1125.204346 1956.808105,1133.115723 1930.719604,1134.493286 
z"/>
<path fill="#000000" opacity="1.000000" stroke="none" 
	d="
M5.000000,2.000000 
	C6.002315,1200.069824 6.004630,2398.139648 6.003472,3597.104736 
	C4.745171,3597.176270 1.756925,3599.947510 1.976385,3595.998779 
	C2.105672,3593.672607 2.000000,3591.333252 2.000000,3589.000000 
	C2.000000,2396.333252 1.997819,1203.666626 2.123167,11.000013 
	C2.123475,8.073349 -0.182974,4.218598 5.000000,2.000000 
z"/>
<path fill="#AFE07C" opacity="1.000000" stroke="none" 
	d="
M1931.674316,1134.434570 
	C1956.808105,1133.115723 1979.075928,1125.204346 1999.531128,1112.966675 
	C2017.208618,1102.390869 2034.623901,1091.036987 2050.694336,1078.198608 
	C2071.576416,1061.516724 2094.916504,1054.312256 2121.051270,1054.286255 
	C2159.712158,1054.247925 2198.377441,1053.949219 2237.031250,1054.473511 
	C2248.931641,1054.634888 2260.975586,1056.279175 2272.651611,1058.700928 
	C2309.408447,1066.324219 2351.993408,1107.337036 2356.137207,1152.315308 
	C2356.899902,1160.597534 2357.876465,1168.902588 2357.918213,1177.201294 
	C2358.107666,1214.861450 2358.227783,1252.525269 2357.839844,1290.182373 
	C2357.737793,1300.092896 2356.243652,1310.076416 2354.474121,1319.861084 
	C2352.060547,1333.206909 2345.461670,1344.673340 2337.422852,1355.584595 
	C2324.988281,1372.461914 2312.492432,1389.379395 2301.398926,1407.139526 
	C2284.443604,1434.284180 2276.046143,1463.985718 2277.071045,1496.403687 
	C2277.892334,1522.373779 2277.634766,1548.398438 2277.127686,1574.384644 
	C2276.600342,1601.404907 2283.295654,1626.419189 2295.658691,1650.198608 
	C2306.625244,1671.292114 2320.100098,1690.742432 2335.214844,1708.962524 
	C2350.410400,1727.279907 2357.540527,1748.347900 2357.780273,1771.612915 
	C2358.236816,1815.934082 2358.260254,1860.267944 2357.726807,1904.587646 
	C2357.455322,1927.131836 2350.434570,1947.619019 2335.772461,1965.412720 
	C2320.716797,1983.684204 2307.120117,2003.038696 2296.076660,2024.093140 
	C2283.467285,2048.132568 2277.032471,2073.425537 2277.092529,2100.801514 
	C2277.403564,2242.446533 2277.237061,2384.092285 2277.237061,2525.737793 
	C2277.237061,2530.026367 2277.237061,2534.314941 2277.237061,2538.396240 
	C2269.441650,2540.544922 2099.430420,2541.084473 2086.254150,2539.021240 
	C2086.254150,2535.335205 2086.253906,2531.427490 2086.253906,2527.519531 
	C2086.253906,2378.208496 2085.958740,2228.896729 2086.503174,2079.587646 
	C2086.611816,2049.747803 2077.528809,2024.039551 2059.673584,2000.924683 
	C2043.028442,1979.376099 2023.558105,1960.859863 1999.777222,1947.220093 
	C1982.356689,1937.228394 1963.675903,1932.301758 1943.504028,1932.330078 
	C1851.184814,1932.459839 1758.864990,1932.466919 1666.545776,1932.324707 
	C1646.020508,1932.293091 1626.953979,1937.176025 1609.384155,1947.602173 
	C1580.171021,1964.937622 1556.758301,1988.260132 1539.157104,2017.291260 
	C1528.005737,2035.684082 1523.366821,2055.667969 1523.406616,2077.312012 
	C1523.682251,2227.289062 1523.551636,2377.266846 1523.551514,2527.244385 
	C1523.551514,2531.173584 1523.551514,2535.102783 1523.551514,2539.586914 
	C1459.719360,2539.586914 1396.868408,2539.586914 1332.725708,2539.586914 
	C1332.634644,2535.818359 1332.460693,2531.968018 1332.460327,2528.117676 
	C1332.446411,2387.138672 1332.040649,2246.157959 1332.742188,2105.182373 
	C1332.912720,2070.923584 1324.418091,2039.947266 1306.407349,2011.447021 
	C1296.282471,1995.425415 1285.307129,1979.839355 1273.552979,1964.975830 
	C1259.946411,1947.769775 1252.531250,1928.438721 1252.241455,1906.955078 
	C1251.616699,1860.639282 1251.625488,1814.303345 1252.249756,1767.987427 
	C1252.534424,1746.868164 1259.505127,1727.614136 1273.119995,1710.867065 
	C1288.898071,1691.459351 1303.445190,1671.152466 1314.841431,1648.754150 
	C1326.674805,1625.496704 1333.133667,1601.113770 1332.580444,1574.763062 
	C1331.992920,1546.779541 1332.101318,1518.768677 1332.552734,1490.780151 
	C1332.943726,1466.547485 1327.122925,1443.991333 1316.678711,1422.359985 
	C1305.741455,1399.707153 1291.653564,1379.048706 1275.647339,1359.832520 
	C1259.250977,1340.148193 1251.958374,1317.716797 1251.906982,1292.552856 
	C1251.826050,1252.892578 1251.485474,1213.225708 1252.121094,1173.575562 
	C1252.322021,1161.049316 1254.369873,1148.356079 1257.174683,1136.105957 
	C1264.994995,1101.950684 1305.985962,1059.114502 1352.454102,1055.852783 
	C1361.749634,1055.200195 1371.060547,1054.392212 1380.367798,1054.346924 
	C1416.361572,1054.171753 1452.359497,1054.020752 1488.349365,1054.438721 
	C1498.593018,1054.557617 1508.914673,1056.088745 1519.020508,1057.949829 
	C1531.988037,1060.337769 1543.246704,1066.663330 1553.914917,1074.453369 
	C1570.844971,1086.816040 1587.773315,1099.293457 1605.555786,1110.349976 
	C1633.010498,1127.420410 1662.991943,1135.285522 1695.759399,1134.929932 
	C1769.739624,1134.127197 1843.734497,1134.680664 1917.723389,1134.669678 
	C1922.055420,1134.669067 1926.387573,1134.554688 1931.674316,1134.434570 
M1969.278564,1327.364624 
	C1960.689819,1326.467285 1952.102783,1324.807251 1943.512207,1324.789795 
	C1850.847778,1324.601685 1758.182861,1324.726807 1665.518066,1324.627808 
	C1646.052124,1324.606934 1627.874634,1329.196045 1611.076782,1338.868286 
	C1581.611328,1355.834351 1558.102905,1379.088135 1540.144043,1407.862915 
	C1528.779419,1426.072021 1523.232300,1445.914551 1523.431030,1467.620239 
	C1523.830933,1511.282349 1523.928955,1554.955322 1523.400757,1598.614624 
	C1523.107056,1622.880737 1529.990845,1644.581177 1543.249146,1664.485352 
	C1558.964233,1688.078247 1578.708862,1707.756470 1602.410767,1723.295898 
	C1621.786133,1735.998413 1642.850098,1742.642090 1666.431885,1742.545410 
	C1759.428467,1742.163940 1852.427612,1742.296021 1945.425537,1742.472656 
	C1962.842529,1742.505737 1979.112305,1738.693726 1994.426270,1730.662720 
	C2024.959961,1714.650024 2048.788330,1691.257812 2067.636230,1662.722900 
	C2080.424805,1643.361572 2086.678467,1622.063354 2086.405518,1598.534302 
	C2085.886963,1553.874512 2086.148438,1509.204102 2086.300049,1464.538818 
	C2086.355713,1448.179199 2082.727051,1432.748657 2075.284424,1418.339111 
	C2058.008301,1384.891357 2032.566895,1358.958984 2000.275146,1339.985107 
	C1991.216064,1334.661865 1980.731323,1331.764893 1969.278564,1327.364624 
z"/>
<path fill="#091D17" opacity="1.000000" stroke="none" 
	d="
M1970.089600,1327.559814 
	C1980.731323,1331.764893 1991.216064,1334.661865 2000.275146,1339.985107 
	C2032.566895,1358.958984 2058.008301,1384.891357 2075.284424,1418.339111 
	C2082.727051,1432.748657 2086.355713,1448.179199 2086.300049,1464.538818 
	C2086.148438,1509.204102 2085.886963,1553.874512 2086.405518,1598.534302 
	C2086.678467,1622.063354 2080.424805,1643.361572 2067.636230,1662.722900 
	C2048.788330,1691.257812 2024.959961,1714.650024 1994.426270,1730.662720 
	C1979.112305,1738.693726 1962.842529,1742.505737 1945.425537,1742.472656 
	C1852.427612,1742.296021 1759.428467,1742.163940 1666.431885,1742.545410 
	C1642.850098,1742.642090 1621.786133,1735.998413 1602.410767,1723.295898 
	C1578.708862,1707.756470 1558.964233,1688.078247 1543.249146,1664.485352 
	C1529.990845,1644.581177 1523.107056,1622.880737 1523.400757,1598.614624 
	C1523.928955,1554.955322 1523.830933,1511.282349 1523.431030,1467.620239 
	C1523.232300,1445.914551 1528.779419,1426.072021 1540.144043,1407.862915 
	C1558.102905,1379.088135 1581.611328,1355.834351 1611.076782,1338.868286 
	C1627.874634,1329.196045 1646.052124,1324.606934 1665.518066,1324.627808 
	C1758.182861,1324.726807 1850.847778,1324.601685 1943.512207,1324.789795 
	C1952.102783,1324.807251 1960.689819,1326.467285 1970.089600,1327.559814 
z"/>
</svg>